# xmcd CD database file
#
# Track frame offsets:
#	150
#	25026
#	45906
#	71146
#	92816
#	112407
#	143032
#	166578
#	182526
#	204175
#
# Disc length: 3049 seconds
#
# Revision: 0
# Processed by: cddbd v1.5.2PL0 Copyright (c) Steve Scherf et al.
# Submitted via: jetAudio 7
#
DISCID=7d0be70a
DTITLE=Lin Hai and Fan Zong-pei - Story
DYEAR=1900
DGENRE=New Age
TTITLE0=The Red Infatuation
TTITLE1=Winter Sun
TTITLE2=Song for a Dancer
TTITLE3=The Sounds of Amorous
TTITLE4=Willows
TTITLE5=Perfume
TTITLE6=The Top of Clouds
TTITLE7=Rain
TTITLE8=City by Moonlight
TTITLE9=Drama
EXTD=
EXTT0=
EXTT1=
EXTT2=
EXTT3=
EXTT4=
EXTT5=
EXTT6=
EXTT7=
EXTT8=
EXTT9=
PLAYORDER=
